Metropolis-Bold.ufo
<glyph name="ampersand" format="1">
  <advance width="742"/>
  <unicode hex="0026"/>
  <outline>
    <contour>
      <point x="291" y="-12" type="curve" smooth="yes"/>
      <point x="466" y="-12"/>
      <point x="583" y="108"/>
      <point x="689" y="307" type="curve"/>
      <point x="555" y="372" type="line"/>
      <point x="503" y="249"/>
      <point x="404" y="129"/>
      <point x="318" y="129" type="curve" smooth="yes"/>
      <point x="276" y="129"/>
      <point x="241" y="158"/>
      <point x="241" y="205" type="curve" smooth="yes"/>
      <point x="241" y="247"/>
      <point x="265" y="274"/>
      <point x="346" y="310" type="curve" smooth="yes"/>
      <point x="521" y="388"/>
      <point x="573" y="431"/>
      <point x="573" y="512" type="curve" smooth="yes"/>
      <point x="573" y="620"/>
      <point x="484" y="696"/>
      <point x="358" y="696" type="curve" smooth="yes"/>
      <point x="245" y="696"/>
      <point x="150" y="612"/>
      <point x="150" y="512" type="curve" smooth="yes"/>
      <point x="150" y="444"/>
      <point x="167" y="413"/>
      <point x="235" y="322" type="curve" smooth="yes"/>
      <point x="282" y="259"/>
      <point x="387" y="145"/>
      <point x="545" y="-22" type="curve"/>
      <point x="698" y="46" type="line"/>
      <point x="527" y="230"/>
      <point x="436" y="331"/>
      <point x="375" y="403" type="curve" smooth="yes"/>
      <point x="334" y="452"/>
      <point x="309" y="471"/>
      <point x="309" y="512" type="curve" smooth="yes"/>
      <point x="309" y="542"/>
      <point x="333" y="567"/>
      <point x="362" y="567" type="curve" smooth="yes"/>
      <point x="392" y="567"/>
      <point x="414" y="544"/>
      <point x="414" y="512" type="curve" smooth="yes"/>
      <point x="414" y="460"/>
      <point x="379" y="450"/>
      <point x="270" y="411" type="curve" smooth="yes"/>
      <point x="109" y="354"/>
      <point x="50" y="301"/>
      <point x="50" y="191" type="curve" smooth="yes"/>
      <point x="50" y="62"/>
      <point x="151" y="-12"/>
    </contour>
  </outline>
</glyph>
<glyph name="quotesingle" format="1">
  <advance width="286"/>
  <unicode hex="0027"/>
  <outline>
    <contour>
      <point x="109" y="370" type="curve"/>
      <point x="177" y="370" type="line"/>
      <point x="208" y="455"/>
      <point x="239" y="547"/>
      <point x="239" y="606" type="curve" smooth="yes"/>
      <point x="239" y="660"/>
      <point x="195" y="705"/>
      <point x="143" y="705" type="curve" smooth="yes"/>
      <point x="91" y="705"/>
      <point x="47" y="660"/>
      <point x="47" y="606" type="curve" smooth="yes"/>
      <point x="47" y="547"/>
      <point x="78" y="455"/>
    </contour>
  </outline>
</glyph>
<glyph name="parenright" format="1">
  <advance width="394"/>
  <unicode hex="0029"/>
  <outline>
    <contour>
      <point x="123" y="-170" type="line"/>
      <point x="269" y="-74"/>
      <point x="357" y="84"/>
      <point x="357" y="265" type="curve" smooth="yes"/>
      <point x="357" y="447"/>
      <point x="269" y="604"/>
      <point x="123" y="700" type="curve"/>
      <point x="26" y="598" type="line"/>
      <point x="126" y="495"/>
      <point x="168" y="398"/>
      <point x="168" y="265" type="curve" smooth="yes"/>
      <point x="168" y="133"/>
      <point x="126" y="36"/>
      <point x="26" y="-67" type="curve"/>
    </contour>
  </outline>
</glyph>
<glyph name="plus" format="1">
  <advance width="611"/>
  <unicode hex="002B"/>
  <outline>
    <contour>
      <point x="56" y="259" type="line"/>
      <point x="555" y="259" type="line"/>
      <point x="555" y="408" type="line"/>
      <point x="56" y="408" type="line"/>
    </contour>
    <contour>
      <point x="226" y="84" type="line"/>
      <point x="386" y="84" type="line"/>
      <point x="386" y="583" type="line"/>
      <point x="226" y="583" type="line"/>
    </contour>
  </outline>
</glyph>
<glyph name="hyphen" format="1">
  <advance width="402"/>
  <unicode hex="002D"/>
  <outline>
    <contour>
      <point x="59" y="199" type="line"/>
      <point x="343" y="199" type="line"/>
      <point x="343" y="357" type="line"/>
      <point x="59" y="357" type="line"/>
    </contour>
  </outline>
</glyph>
<glyph name="period" format="1">
  <advance width="352"/>
  <unicode hex="002E"/>
  <outline>
    <contour>
      <point x="178" y="-12" type="curve" smooth="yes"/>
      <point x="240" y="-12"/>
      <point x="291" y="41"/>
      <point x="291" y="106" type="curve" smooth="yes"/>
      <point x="291" y="166"/>
      <point x="240" y="219"/>
      <point x="178" y="219" type="curve" smooth="yes"/>
      <point x="111" y="219"/>
      <point x="60" y="166"/>
      <point x="60" y="106" type="curve" smooth="yes"/>
      <point x="60" y="41"/>
      <point x="111" y="-12"/>
    </contour>
  </outline>
</glyph>
<glyph name="zero" format="1">
  <advance width="728"/>
  <unicode hex="0030"/>
  <outline>
    <contour>
      <point x="364" y="-12" type="curve" smooth="yes"/>
      <point x="554" y="-12"/>
      <point x="688" y="135"/>
      <point x="688" y="344" type="curve" smooth="yes"/>
      <point x="688" y="552"/>
      <point x="554" y="699"/>
      <point x="364" y="699" type="curve" smooth="yes"/>
      <point x="174" y="699"/>
      <point x="40" y="552"/>
      <point x="40" y="344" type="curve" smooth="yes"/>
      <point x="40" y="135"/>
      <point x="174" y="-12"/>
    </contour>
    <contour>
      <point x="364" y="164" type="curve" smooth="yes"/>
      <point x="291" y="164"/>
      <point x="240" y="239"/>
      <point x="240" y="344" type="curve" smooth="yes"/>
      <point x="240" y="449"/>
      <point x="291" y="523"/>
      <point x="364" y="523" type="curve" smooth="yes"/>
      <point x="437" y="523"/>
      <point x="488" y="449"/>
      <point x="488" y="344" type="curve" smooth="yes"/>
      <point x="488" y="239"/>
      <point x="437" y="164"/>
    </contour>
  </outline>
</glyph>
<glyph name="two" format="1">
  <advance width="641"/>
  <unicode hex="0032"/>
  <outline>
    <contour>
      <point x="45" y="0" type="line"/>
      <point x="595" y="0" type="line"/>
      <point x="595" y="173" type="line"/>
      <point x="342" y="173" type="line"/>
      <point x="431" y="230" type="line" smooth="yes"/>
      <point x="553" y="308"/>
      <point x="589" y="378"/>
      <point x="589" y="468" type="curve" smooth="yes"/>
      <point x="589" y="601"/>
      <point x="479" y="699"/>
      <point x="316" y="699" type="curve" smooth="yes"/>
      <point x="202" y="699"/>
      <point x="109" y="653"/>
      <point x="33" y="563" type="curve"/>
      <point x="153" y="442" type="line"/>
      <point x="206" y="495"/>
      <point x="252" y="523"/>
      <point x="311" y="523" type="curve" smooth="yes"/>
      <point x="356" y="523"/>
      <point x="389" y="498"/>
      <point x="389" y="460" type="curve" smooth="yes"/>
      <point x="389" y="424"/>
      <point x="372" y="393"/>
      <point x="300" y="341" type="curve" smooth="yes"/>
      <point x="45" y="157" type="line"/>
    </contour>
  </outline>
</glyph>
<glyph name="four" format="1">
  <advance width="689"/>
  <unicode hex="0034"/>
  <outline>
    <contour>
      <point x="378" y="0" type="line"/>
      <point x="572" y="0" type="line"/>
      <point x="572" y="122" type="line"/>
      <point x="655" y="122" type="line"/>
      <point x="655" y="282" type="line"/>
      <point x="572" y="282" type="line"/>
      <point x="572" y="686" type="line"/>
      <point x="334" y="686" type="line"/>
      <point x="31" y="268" type="line"/>
      <point x="47" y="122" type="line"/>
      <point x="378" y="122" type="line"/>
    </contour>
    <contour>
      <point x="230" y="282" type="line"/>
      <point x="378" y="488" type="line"/>
      <point x="378" y="282" type="line"/>
    </contour>
  </outline>
</glyph>
<glyph name="six" format="1">
  <advance width="666"/>
  <unicode hex="0036"/>
  <outline>
    <contour>
      <point x="354" y="-12" type="curve" smooth="yes"/>
      <point x="509" y="-12"/>
      <point x="631" y="83"/>
      <point x="631" y="233" type="curve" smooth="yes"/>
      <point x="631" y="370"/>
      <point x="526" y="454"/>
      <point x="398" y="454" type="curve" smooth="yes"/>
      <point x="321" y="454"/>
      <point x="242" y="420"/>
      <point x="206" y="371" type="curve"/>
      <point x="227" y="181" type="line"/>
      <point x="230" y="250"/>
      <point x="275" y="299"/>
      <point x="336" y="299" type="curve" smooth="yes"/>
      <point x="386" y="299"/>
      <point x="431" y="272"/>
      <point x="431" y="225" type="curve" smooth="yes"/>
      <point x="431" y="183"/>
      <point x="395" y="152"/>
      <point x="341" y="152" type="curve" smooth="yes"/>
      <point x="257" y="152"/>
      <point x="241" y="202"/>
      <point x="241" y="331" type="curve" smooth="yes"/>
      <point x="241" y="458"/>
      <point x="289" y="530"/>
      <point x="384" y="530" type="curve" smooth="yes"/>
      <point x="436" y="530"/>
      <point x="474" y="514"/>
      <point x="515" y="484" type="curve"/>
      <point x="603" y="630" type="line"/>
      <point x="543" y="673"/>
      <point x="469" y="699"/>
      <point x="382" y="699" type="curve" smooth="yes"/>
      <point x="169" y="699"/>
      <point x="41" y="552"/>
      <point x="41" y="331" type="curve" smooth="yes"/>
      <point x="41" y="127"/>
      <point x="144" y="-12"/>
    </contour>
  </outline>
</glyph>
<glyph name="colon" format="1">
  <advance width="341"/>
  <unicode hex="003A"/>
  <outline>
    <contour>
      <point x="173" y="313" type="curve" smooth="yes"/>
      <point x="235" y="313"/>
      <point x="286" y="366"/>
      <point x="286" y="431" type="curve" smooth="yes"/>
      <point x="286" y="491"/>
      <point x="235" y="544"/>
      <point x="173" y="544" type="curve" smooth="yes"/>
      <point x="106" y="544"/>
      <point x="55" y="491"/>
      <point x="55" y="431" type="curve" smooth="yes"/>
      <point x="55" y="366"/>
      <point x="106" y="313"/>
    </contour>
    <contour>
      <point x="173" y="-12" type="curve" smooth="yes"/>
      <point x="235" y="-12"/>
      <point x="286" y="41"/>
      <point x="286" y="106" type="curve" smooth="yes"/>
      <point x="286" y="166"/>
      <point x="235" y="219"/>
      <point x="173" y="219" type="curve" smooth="yes"/>
      <point x="106" y="219"/>
      <point x="55" y="166"/>
      <point x="55" y="106" type="curve" smooth="yes"/>
      <point x="55" y="41"/>
      <point x="106" y="-12"/>
    </contour>
  </outline>
</glyph>
<glyph name="question" format="1">
  <advance width="553"/>
  <unicode hex="003F"/>
  <outline>
    <contour>
      <point x="185" y="264" type="line"/>
      <point x="349" y="264" type="line"/>
      <point x="349" y="300" type="line"/>
      <point x="443" y="323"/>
      <point x="510" y="403"/>
      <point x="510" y="494" type="curve" smooth="yes"/>
      <point x="510" y="614"/>
      <point x="413" y="699"/>
      <point x="275" y="699" type="curve" smooth="yes"/>
      <point x="178" y="699"/>
      <point x="94" y="658"/>
      <point x="34" y="596" type="curve"/>
      <point x="140" y="487" type="line"/>
      <point x="165" y="510"/>
      <point x="205" y="526"/>
      <point x="237" y="526" type="curve" smooth="yes"/>
      <point x="282" y="526"/>
      <point x="314" y="505"/>
      <point x="314" y="475" type="curve" smooth="yes"/>
      <point x="314" y="439"/>
      <point x="261" y="414"/>
      <point x="185" y="414" type="curve"/>
    </contour>
    <component base="period" xOffset="89"/>
  </outline>
</glyph>
<glyph name="at" format="1">
  <advance width="898"/>
  <unicode hex="0040"/>
  <outline>
    <contour>
      <point x="434" y="-116" type="curve" smooth="yes"/>
      <point x="523" y="-116"/>
      <point x="601" y="-91"/>
      <point x="671" y="-47" type="curve"/>
      <point x="649" y="-14" type="line"/>
      <point x="584" y="-53"/>
      <point x="518" y="-75"/>
      <point x="437" y="-75" type="curve" smooth="yes"/>
      <point x="237" y="-75"/>
      <point x="96" y="72"/>
      <point x="96" y="261" type="curve" smooth="yes"/>
      <point x="96" y="465"/>
      <point x="261" y="634"/>
      <point x="471" y="634" type="curve" smooth="yes"/>
      <point x="668" y="634"/>
      <point x="800" y="503"/>
      <point x="800" y="334" type="curve" smooth="yes"/>
      <point x="800" y="222"/>
      <point x="753" y="163"/>
      <point x="701" y="163" type="curve" smooth="yes"/>
      <point x="672" y="163"/>
      <point x="654" y="181"/>
      <point x="654" y="211" type="curve" smooth="yes"/>
      <point x="654" y="255"/>
      <point x="670" y="306"/>
      <point x="704" y="484" type="curve"/>
      <point x="548" y="496" type="line"/>
      <point x="537" y="444" type="line"/>
      <point x="512" y="481"/>
      <point x="470" y="509"/>
      <point x="409" y="509" type="curve" smooth="yes"/>
      <point x="293" y="509"/>
      <point x="190" y="395"/>
      <point x="190" y="260" type="curve" smooth="yes"/>
      <point x="190" y="150"/>
      <point x="257" y="73"/>
      <point x="360" y="73" type="curve" smooth="yes"/>
      <point x="413" y="73"/>
      <point x="462" y="99"/>
      <point x="498" y="146" type="curve"/>
      <point x="517" y="102"/>
      <point x="556" y="71"/>
      <point x="628" y="71" type="curve" smooth="yes"/>
      <point x="727" y="71"/>
      <point x="846" y="154"/>
      <point x="846" y="334" type="curve" smooth="yes"/>
      <point x="846" y="516"/>
      <point x="693" y="676"/>
      <point x="473" y="676" type="curve" smooth="yes"/>
      <point x="242" y="676"/>
      <point x="53" y="486"/>
      <point x="53" y="260" type="curve" smooth="yes"/>
      <point x="53" y="50"/>
      <point x="214" y="-116"/>
    </contour>
    <contour>
      <point x="419" y="202" type="curve" smooth="yes"/>
      <point x="379" y="202"/>
      <point x="351" y="228"/>
      <point x="351" y="273" type="curve" smooth="yes"/>
      <point x="351" y="328"/>
      <point x="389" y="380"/>
      <point x="448" y="380" type="curve" smooth="yes"/>
      <point x="488" y="380"/>
      <point x="513" y="349"/>
      <point x="509" y="304" type="curve" smooth="yes"/>
      <point x="504" y="244"/>
      <point x="466" y="202"/>
    </contour>
  </outline>
</glyph>
<glyph name="D" format="1">
  <advance width="778"/>
  <unicode hex="0044"/>
  <outline>
    <contour>
      <point x="73" y="0" type="line"/>
      <point x="329" y="0" type="line" smooth="yes"/>
      <point x="569" y="0"/>
      <point x="739" y="143"/>
      <point x="739" y="344" type="curve" smooth="yes"/>
      <point x="739" y="545"/>
      <point x="569" y="687"/>
      <point x="329" y="687" type="curve" smooth="yes"/>
      <point x="73" y="687" type="line"/>
    </contour>
    <contour>
      <point x="267" y="176" type="line"/>
      <point x="267" y="511" type="line"/>
      <point x="361" y="511" type="line" smooth="yes"/>
      <point x="465" y="511"/>
      <point x="539" y="442"/>
      <point x="539" y="344" type="curve" smooth="yes"/>
      <point x="539" y="246"/>
      <point x="465" y="176"/>
      <point x="361" y="176" type="curve" smooth="yes"/>
    </contour>
    <contour>
      <point x="329" y="687" type="move" name="top"/>
    </contour>
  </outline>
</glyph>
<glyph name="E" format="1">
  <advance width="682"/>
  <unicode hex="0045"/>
  <outline>
    <contour>
      <point x="73" y="0" type="line"/>
      <point x="626" y="0" type="line"/>
      <point x="626" y="173" type="line"/>
      <point x="172" y="173" type="line"/>
      <point x="267" y="54" type="line"/>
      <point x="267" y="333" type="line"/>
      <point x="172" y="264" type="line"/>
      <point x="594" y="264" type="line"/>
      <point x="594" y="437" type="line"/>
      <point x="172" y="437" type="line"/>
      <point x="267" y="367" type="line"/>
      <point x="267" y="633" type="line"/>
      <point x="172" y="514" type="line"/>
      <point x="626" y="514" type="line"/>
      <point x="626" y="687" type="line"/>
      <point x="73" y="687" type="line"/>
    </contour>
    <contour>
      <point x="73" y="687" type="move" name="ae_upper"/>
    </contour>
    <contour>
      <point x="626" y="0" type="move" name="bottom"/>
    </contour>
    <contour>
      <point x="350" y="687" type="move" name="top"/>
    </contour>
  </outline>
</glyph>
<glyph name="G" format="1">
  <advance width="754"/>
  <unicode hex="0047"/>
  <outline>
    <contour>
      <point x="419" y="-12" type="curve" smooth="yes"/>
      <point x="527" y="-12"/>
      <point x="632" y="33"/>
      <point x="703" y="110" type="curve"/>
      <point x="561" y="234" type="line"/>
      <point x="526" y="190"/>
      <point x="474" y="164"/>
      <point x="419" y="164" type="curve" smooth="yes"/>
      <point x="322" y="164"/>
      <point x="240" y="246"/>
      <point x="240" y="344" type="curve" smooth="yes"/>
      <point x="240" y="441"/>
      <point x="322" y="523"/>
      <point x="419" y="523" type="curve" smooth="yes"/>
      <point x="474" y="523"/>
      <point x="526" y="497"/>
      <point x="560" y="453" type="curve"/>
      <point x="703" y="578" type="line"/>
      <point x="632" y="654"/>
      <point x="527" y="699"/>
      <point x="419" y="699" type="curve" smooth="yes"/>
      <point x="213" y="699"/>
      <point x="40" y="537"/>
      <point x="40" y="344" type="curve" smooth="yes"/>
      <point x="40" y="151"/>
      <point x="213" y="-12"/>
    </contour>
    <contour>
      <point x="515" y="110" type="line"/>
      <point x="703" y="110" type="line"/>
      <point x="703" y="402" type="line"/>
      <point x="381" y="402" type="line"/>
      <point x="381" y="259" type="line"/>
      <point x="544" y="259" type="line"/>
      <point x="515" y="288" type="line"/>
    </contour>
    <contour>
      <point x="419" y="0" type="move" name="bottom"/>
    </contour>
    <contour>
      <point x="419" y="687" type="move" name="top"/>
    </contour>
  </outline>
</glyph>
<glyph name="L" format="1">
  <advance width="623"/>
  <unicode hex="004C"/>
  <outline>
    <contour>
      <point x="73" y="0" type="line"/>
      <point x="587" y="0" type="line"/>
      <point x="587" y="173" type="line"/>
      <point x="210" y="173" type="line"/>
      <point x="267" y="117" type="line"/>
      <point x="267" y="687" type="line"/>
      <point x="73" y="687" type="line"/>
    </contour>
    <contour>
      <point x="169" y="687" type="move" name="top"/>
    </contour>
  </outline>
</glyph>
<glyph name="M" format="1">
  <advance width="902"/>
  <unicode hex="004D"/>
  <outline>
    <contour>
      <point x="73" y="0" type="line"/>
      <point x="267" y="0" type="line"/>
      <point x="267" y="368" type="line"/>
      <point x="451" y="40" type="line"/>
      <point x="635" y="368" type="line"/>
      <point x="635" y="0" type="line"/>
      <point x="829" y="0" type="line"/>
      <point x="829" y="687" type="line"/>
      <point x="635" y="687" type="line"/>
      <point x="451" y="359" type="line"/>
      <point x="267" y="687" type="line"/>
      <point x="73" y="687" type="line"/>
    </contour>
  </outline>
</glyph>
<glyph name="S" format="1">
  <advance width="678"/>
  <unicode hex="0053"/>
  <outline>
    <contour>
      <point x="357" y="-12" type="curve" smooth="yes"/>
      <point x="529" y="-12"/>
      <point x="640" y="73"/>
      <point x="640" y="218" type="curve" smooth="yes"/>
      <point x="640" y="349"/>
      <point x="540" y="392"/>
      <point x="380" y="426" type="curve" smooth="yes"/>
      <point x="282" y="447"/>
      <point x="258" y="458"/>
      <point x="258" y="493" type="curve" smooth="yes"/>
      <point x="258" y="519"/>
      <point x="281" y="538"/>
      <point x="328" y="538" type="curve" smooth="yes"/>
      <point x="390" y="538"/>
      <point x="460" y="515"/>
      <point x="524" y="469" type="curve"/>
      <point x="621" y="606" type="line"/>
      <point x="545" y="667"/>
      <point x="452" y="699"/>
      <point x="333" y="699" type="curve" smooth="yes"/>
      <point x="170" y="699"/>
      <point x="62" y="610"/>
      <point x="62" y="473" type="curve" smooth="yes"/>
      <point x="62" y="330"/>
      <point x="177" y="291"/>
      <point x="326" y="257" type="curve" smooth="yes"/>
      <point x="421" y="235"/>
      <point x="445" y="230"/>
      <point x="445" y="197" type="curve" smooth="yes"/>
      <point x="445" y="167"/>
      <point x="417" y="149"/>
      <point x="364" y="149" type="curve" smooth="yes"/>
      <point x="283" y="149"/>
      <point x="207" y="178"/>
      <point x="137" y="233" type="curve"/>
      <point x="29" y="104" type="line"/>
      <point x="116" y="27"/>
      <point x="233" y="-12"/>
    </contour>
    <contour>
      <point x="337" y="0" type="move" name="bottom"/>
    </contour>
    <contour>
      <point x="337" y="687" type="move" name="top"/>
    </contour>
  </outline>
</glyph>
<glyph name="T" format="1">
  <advance width="672"/>
  <unicode hex="0054"/>
  <outline>
    <contour>
      <point x="239" y="0" type="line"/>
      <point x="433" y="0" type="line"/>
      <point x="433" y="514" type="line"/>
      <point x="636" y="514" type="line"/>
      <point x="636" y="687" type="line"/>
      <point x="36" y="687" type="line"/>
      <point x="36" y="514" type="line"/>
      <point x="239" y="514" type="line"/>
    </contour>
    <contour>
      <point x="336" y="0" type="move" name="bottom"/>
    </contour>
    <contour>
      <point x="336" y="687" type="move" name="top"/>
    </contour>
  </outline>
</glyph>
<glyph name="U" format="1">
  <advance width="772"/>
  <unicode hex="0055"/>
  <outline>
    <contour>
      <point x="386" y="-12" type="curve" smooth="yes"/>
      <point x="578" y="-12"/>
      <point x="713" y="119"/>
      <point x="713" y="305" type="curve" smooth="yes"/>
      <point x="713" y="687" type="line"/>
      <point x="519" y="687" type="line"/>
      <point x="519" y="315" type="line" smooth="yes"/>
      <point x="519" y="227"/>
      <point x="464" y="164"/>
      <point x="386" y="164" type="curve" smooth="yes"/>
      <point x="308" y="164"/>
      <point x="253" y="227"/>
      <point x="253" y="315" type="curve" smooth="yes"/>
      <point x="253" y="687" type="line"/>
      <point x="59" y="687" type="line"/>
      <point x="59" y="305" type="line" smooth="yes"/>
      <point x="59" y="119"/>
      <point x="194" y="-12"/>
    </contour>
    <contour>
      <point x="386" y="-12" type="move" name="bottom"/>
    </contour>
    <contour>
      <point x="386" y="687" type="move" name="top"/>
    </contour>
  </outline>
</glyph>
<glyph name="W" format="1">
  <advance width="1117"/>
  <unicode hex="0057"/>
  <outline>
    <contour>
      <point x="219" y="0" type="line"/>
      <point x="415" y="0" type="line"/>
      <point x="559" y="397" type="line"/>
      <point x="702" y="0" type="line"/>
      <point x="898" y="0" type="line"/>
      <point x="1088" y="687" type="line"/>
      <point x="879" y="687" type="line"/>
      <point x="795" y="290" type="line"/>
      <point x="663" y="687" type="line"/>
      <point x="454" y="687" type="line"/>
      <point x="321" y="290" type="line"/>
      <point x="237" y="687" type="line"/>
      <point x="28" y="687" type="line"/>
    </contour>
    <contour>
      <point x="559" y="687" type="move" name="top"/>
    </contour>
  </outline>
</glyph>
<glyph name="X" format="1">
  <advance width="767"/>
  <unicode hex="0058"/>
  <outline>
    <contour>
      <point x="513" y="0" type="line"/>
      <point x="27" y="687" type="line"/>
      <point x="254" y="687" type="line"/>
      <point x="740" y="0" type="line"/>
    </contour>
    <contour>
      <point x="27" y="0" type="line"/>
      <point x="517" y="687" type="line"/>
      <point x="740" y="687" type="line"/>
      <point x="250" y="0" type="line"/>
    </contour>
  </outline>
</glyph>
<glyph name="Y" format="1">
  <advance width="771"/>
  <unicode hex="0059"/>
  <outline>
    <contour>
      <point x="289" y="0" type="line"/>
      <point x="483" y="0" type="line"/>
      <point x="483" y="226" type="line"/>
      <point x="746" y="687" type="line"/>
      <point x="533" y="687" type="line"/>
      <point x="386" y="408" type="line"/>
      <point x="247" y="687" type="line"/>
      <point x="25" y="687" type="line"/>
      <point x="289" y="226" type="line"/>
    </contour>
    <contour>
      <point x="386" y="687" type="move" name="top"/>
    </contour>
  </outline>
</glyph>
<glyph name="Z" format="1">
  <advance width="692"/>
  <unicode hex="005A"/>
  <outline>
    <contour>
      <point x="48" y="0" type="line"/>
      <point x="644" y="0" type="line"/>
      <point x="644" y="173" type="line"/>
      <point x="315" y="173" type="line"/>
      <point x="639" y="542" type="line"/>
      <point x="639" y="687" type="line"/>
      <point x="55" y="687" type="line"/>
      <point x="55" y="514" type="line"/>
      <point x="373" y="514" type="line"/>
      <point x="47" y="145" type="line"/>
    </contour>
    <contour>
      <point x="350" y="687" type="move" name="top"/>
    </contour>
  </outline>
</glyph>
<glyph name="asciicircum" format="1">
  <advance width="506"/>
  <unicode hex="005E"/>
  <outline>
    <contour>
      <point x="46" y="413" type="line"/>
      <point x="175" y="413" type="line"/>
      <point x="252" y="573" type="line"/>
      <point x="330" y="413" type="line"/>
      <point x="460" y="413" type="line"/>
      <point x="318" y="687" type="line"/>
      <point x="189" y="687" type="line"/>
    </contour>
  </outline>
</glyph>
<glyph name="underscore" format="1">
  <advance width="714"/>
  <unicode hex="005F"/>
  <outline>
    <contour>
      <point x="59" y="-159" type="line"/>
      <point x="655" y="-159" type="line"/>
      <point x="655" y="-61" type="line"/>
      <point x="59" y="-61" type="line"/>
    </contour>
  </outline>
</glyph>
<glyph name="grave" format="1">
  <advance width="318"/>
  <unicode hex="0060"/>
  <outline>
    <contour>
      <point x="173" y="574" type="line"/>
      <point x="299" y="574" type="line"/>
      <point x="187" y="738" type="line"/>
      <point x="21" y="710" type="line"/>
    </contour>
    <contour>
      <point x="232" y="517" type="move" name="_top"/>
    </contour>
    <contour>
      <point x="232" y="704" type="move" name="top"/>
    </contour>
  </outline>
</glyph>
<glyph name="c" format="1">
  <advance width="557"/>
  <unicode hex="0063"/>
  <outline>
    <contour>
      <point x="318" y="-12" type="curve" smooth="yes"/>
      <point x="414" y="-12"/>
      <point x="487" y="27"/>
      <point x="539" y="87" type="curve"/>
      <point x="412" y="189" type="line"/>
      <point x="391" y="165"/>
      <point x="353" y="148"/>
      <point x="320" y="148" type="curve" smooth="yes"/>
      <point x="261" y="148"/>
      <point x="212" y="199"/>
      <point x="212" y="260" type="curve" smooth="yes"/>
      <point x="212" y="319"/>
      <point x="261" y="369"/>
      <point x="319" y="369" type="curve" smooth="yes"/>
      <point x="352" y="369"/>
      <point x="389" y="352"/>
      <point x="409" y="329" type="curve"/>
      <point x="536" y="433" type="line"/>
      <point x="486" y="491"/>
      <point x="413" y="529"/>
      <point x="321" y="529" type="curve" smooth="yes"/>
      <point x="162" y="529"/>
      <point x="28" y="406"/>
      <point x="28" y="259" type="curve" smooth="yes"/>
      <point x="28" y="112"/>
      <point x="161" y="-12"/>
    </contour>
    <contour>
      <point x="309" y="0" type="move" name="bottom"/>
    </contour>
    <contour>
      <point x="299" y="517" type="move" name="top"/>
    </contour>
  </outline>
</glyph>
<glyph name="e" format="1">
  <advance width="600"/>
  <unicode hex="0065"/>
  <outline>
    <contour>
      <point x="316" y="-12" type="curve" smooth="yes"/>
      <point x="395" y="-12"/>
      <point x="483" y="21"/>
      <point x="529" y="68" type="curve"/>
      <point x="423" y="175" type="line"/>
      <point x="389" y="148"/>
      <point x="347" y="132"/>
      <point x="308" y="132" type="curve" smooth="yes"/>
      <point x="245" y="132"/>
      <point x="205" y="185"/>
      <point x="205" y="259" type="curve" smooth="yes"/>
      <point x="205" y="333"/>
      <point x="245" y="385"/>
      <point x="308" y="385" type="curve" smooth="yes"/>
      <point x="364" y="385"/>
      <point x="399" y="335"/>
      <point x="399" y="265" type="curve"/>
      <point x="446" y="314" type="line"/>
      <point x="89" y="314" type="line"/>
      <point x="89" y="213" type="line"/>
      <point x="577" y="213" type="line"/>
      <point x="577" y="412"/>
      <point x="474" y="529"/>
      <point x="308" y="529" type="curve" smooth="yes"/>
      <point x="148" y="529"/>
      <point x="30" y="418"/>
      <point x="30" y="260" type="curve" smooth="yes"/>
      <point x="30" y="101"/>
      <point x="151" y="-12"/>
    </contour>
    <contour>
      <point x="316" y="-12" type="move" name="bottom"/>
    </contour>
    <contour>
      <point x="308" y="517" type="move" name="top"/>
    </contour>
  </outline>
</glyph>
<glyph name="k" format="1">
  <advance width="619"/>
  <unicode hex="006B"/>
  <outline>
    <contour>
      <point x="59" y="0" type="line"/>
      <point x="252" y="0" type="line"/>
      <point x="252" y="119" type="line"/>
      <point x="294" y="171" type="line"/>
      <point x="389" y="0" type="line"/>
      <point x="605" y="0" type="line"/>
      <point x="420" y="294" type="line"/>
      <point x="601" y="517" type="line"/>
      <point x="385" y="517" type="line"/>
      <point x="252" y="335" type="line"/>
      <point x="252" y="699" type="line"/>
      <point x="59" y="699" type="line"/>
    </contour>
    <contour>
      <point x="316" y="0" type="move" name="bottom"/>
    </contour>
  </outline>
</glyph>
<glyph name="o" format="1">
  <advance width="641"/>
  <unicode hex="006F"/>
  <outline>
    <contour>
      <point x="321" y="-12" type="curve" smooth="yes"/>
      <point x="482" y="-12"/>
      <point x="613" y="110"/>
      <point x="613" y="259" type="curve" smooth="yes"/>
      <point x="613" y="408"/>
      <point x="482" y="529"/>
      <point x="321" y="529" type="curve" smooth="yes"/>
      <point x="160" y="529"/>
      <point x="28" y="408"/>
      <point x="28" y="259" type="curve" smooth="yes"/>
      <point x="28" y="110"/>
      <point x="160" y="-12"/>
    </contour>
    <contour>
      <point x="321" y="148" type="curve" smooth="yes"/>
      <point x="260" y="148"/>
      <point x="210" y="198"/>
      <point x="210" y="259" type="curve" smooth="yes"/>
      <point x="210" y="320"/>
      <point x="260" y="369"/>
      <point x="321" y="369" type="curve" smooth="yes"/>
      <point x="382" y="369"/>
      <point x="431" y="320"/>
      <point x="431" y="259" type="curve" smooth="yes"/>
      <point x="431" y="198"/>
      <point x="382" y="148"/>
    </contour>
    <contour>
      <point x="321" y="517" type="move" name="top"/>
    </contour>
  </outline>
</glyph>
<glyph name="v" format="1">
  <advance width="653"/>
  <unicode hex="0076"/>
  <outline>
    <contour>
      <point x="239" y="0" type="line"/>
      <point x="417" y="0" type="line"/>
      <point x="640" y="517" type="line"/>
      <point x="442" y="517" type="line"/>
      <point x="328" y="221" type="line"/>
      <point x="211" y="517" type="line"/>
      <point x="13" y="517" type="line"/>
    </contour>
  </outline>
</glyph>
<glyph name="w" format="1">
  <advance width="864"/>
  <unicode hex="0077"/>
  <outline>
    <contour>
      <point x="193" y="0" type="line"/>
      <point x="364" y="0" type="line"/>
      <point x="432" y="266" type="line"/>
      <point x="502" y="0" type="line"/>
      <point x="673" y="0" type="line"/>
      <point x="849" y="517" type="line"/>
      <point x="664" y="517" type="line"/>
      <point x="588" y="259" type="line"/>
      <point x="511" y="517" type="line"/>
      <point x="353" y="517" type="line"/>
      <point x="277" y="259" type="line"/>
      <point x="200" y="517" type="line"/>
      <point x="15" y="517" type="line"/>
    </contour>
    <contour>
      <point x="432" y="517" type="move" name="top"/>
    </contour>
  </outline>
</glyph>
<glyph name="x" format="1">
  <advance width="596"/>
  <unicode hex="0078"/>
  <outline>
    <contour>
      <point x="379" y="0" type="line"/>
      <point x="583" y="0" type="line"/>
      <point x="226" y="517" type="line"/>
      <point x="22" y="517" type="line"/>
    </contour>
    <contour>
      <point x="13" y="0" type="line"/>
      <point x="212" y="0" type="line"/>
      <point x="573" y="517" type="line"/>
      <point x="374" y="517" type="line"/>
    </contour>
  </outline>
</glyph>
<glyph name="y" format="1">
  <advance width="625"/>
  <unicode hex="0079"/>
  <outline>
    <contour>
      <point x="210" y="-180" type="curve" smooth="yes"/>
      <point x="298" y="-180"/>
      <point x="374" y="-115"/>
      <point x="416" y="-4" type="curve" smooth="yes"/>
      <point x="611" y="517" type="line"/>
      <point x="417" y="517" type="line"/>
      <point x="317" y="198" type="line"/>
      <point x="211" y="517" type="line"/>
      <point x="14" y="517" type="line"/>
      <point x="223" y="-7" type="line"/>
      <point x="213" y="-27" type="line"/>
      <point x="207" y="-36"/>
      <point x="185" y="-43"/>
      <point x="161" y="-43" type="curve" smooth="yes"/>
      <point x="147" y="-43"/>
      <point x="117" y="-31"/>
      <point x="88" y="-14" type="curve"/>
      <point x="49" y="-138" type="line"/>
      <point x="91" y="-163"/>
      <point x="158" y="-180"/>
    </contour>
    <contour>
      <point x="317" y="517" type="move" name="top"/>
    </contour>
  </outline>
</glyph>
<glyph name="z" format="1">
  <advance width="559"/>
  <unicode hex="007A"/>
  <outline>
    <contour>
      <point x="38" y="0" type="line"/>
      <point x="519" y="0" type="line"/>
      <point x="519" y="160" type="line"/>
      <point x="287" y="160" type="line"/>
      <point x="516" y="384" type="line"/>
      <point x="517" y="517" type="line"/>
      <point x="45" y="517" type="line"/>
      <point x="45" y="357" type="line"/>
      <point x="267" y="357" type="line"/>
      <point x="38" y="133" type="line"/>
    </contour>
    <contour>
      <point x="284" y="517" type="move" name="top"/>
    </contour>
  </outline>
</glyph>
<glyph name="braceright" format="1">
  <advance width="422"/>
  <unicode hex="007D"/>
  <outline>
    <contour>
      <point x="48" y="-166" type="line"/>
      <point x="230" y="-154"/>
      <point x="302" y="-97"/>
      <point x="302" y="23" type="curve"/>
      <point x="300" y="130" type="line"/>
      <point x="300" y="187"/>
      <point x="328" y="211"/>
      <point x="394" y="211" type="curve"/>
      <point x="394" y="321" type="line"/>
      <point x="326" y="321"/>
      <point x="300" y="345"/>
      <point x="300" y="402" type="curve" smooth="yes"/>
      <point x="302" y="508" type="line" smooth="yes"/>
      <point x="302" y="629"/>
      <point x="229" y="685"/>
      <point x="48" y="697" type="curve"/>
      <point x="33" y="584" type="line"/>
      <point x="134" y="572"/>
      <point x="155" y="556"/>
      <point x="155" y="493" type="curve" smooth="yes"/>
      <point x="154" y="378" type="line" smooth="yes"/>
      <point x="154" y="321"/>
      <point x="180" y="283"/>
      <point x="233" y="266" type="curve"/>
      <point x="180" y="249"/>
      <point x="154" y="211"/>
      <point x="154" y="153" type="curve" smooth="yes"/>
      <point x="155" y="39" type="line" smooth="yes"/>
      <point x="155" y="-25"/>
      <point x="132" y="-41"/>
      <point x="33" y="-53" type="curve"/>
    </contour>
  </outline>
</glyph>
<glyph name="sterling" format="1">
  <advance width="722"/>
  <unicode hex="00A3"/>
  <outline>
    <contour>
      <point x="53" y="0" type="line"/>
      <point x="667" y="0" type="line"/>
      <point x="667" y="143" type="line"/>
      <point x="290" y="143" type="line"/>
      <point x="347" y="87" type="line"/>
      <point x="347" y="443" type="line" smooth="yes"/>
      <point x="347" y="490"/>
      <point x="381" y="523"/>
      <point x="428" y="523" type="curve" smooth="yes"/>
      <point x="463" y="523"/>
      <point x="501" y="498"/>
      <point x="520" y="463" type="curve"/>
      <point x="645" y="585" type="line"/>
      <point x="596" y="652"/>
      <point x="495" y="699"/>
      <point x="402" y="699" type="curve" smooth="yes"/>
      <point x="256" y="699"/>
      <point x="153" y="601"/>
      <point x="153" y="463" type="curve" smooth="yes"/>
      <point x="153" y="143" type="line"/>
      <point x="53" y="76" type="line"/>
    </contour>
    <contour>
      <point x="79" y="250" type="line"/>
      <point x="484" y="250" type="line"/>
      <point x="484" y="337" type="line"/>
      <point x="79" y="337" type="line"/>
    </contour>
  </outline>
</glyph>
<glyph name="yen" format="1">
  <advance width="811"/>
  <unicode hex="00A5"/>
  <outline>
    <contour>
      <point x="157" y="90" type="line"/>
      <point x="653" y="90" type="line"/>
      <point x="653" y="177" type="line"/>
      <point x="157" y="177" type="line"/>
    </contour>
    <contour>
      <point x="157" y="230" type="line"/>
      <point x="653" y="230" type="line"/>
      <point x="653" y="317" type="line"/>
      <point x="157" y="317" type="line"/>
    </contour>
    <component base="Y" xOffset="20"/>
  </outline>
</glyph>
<glyph name="dieresis" format="1">
  <advance width="482"/>
  <unicode hex="00A8"/>
  <outline>
    <contour>
      <point x="129" y="575" type="curve" smooth="yes"/>
      <point x="176" y="575"/>
      <point x="215" y="614"/>
      <point x="215" y="662" type="curve" smooth="yes"/>
      <point x="215" y="708"/>
      <point x="176" y="748"/>
      <point x="129" y="748" type="curve" smooth="yes"/>
      <point x="79" y="748"/>
      <point x="42" y="708"/>
      <point x="42" y="662" type="curve" smooth="yes"/>
      <point x="42" y="614"/>
      <point x="79" y="575"/>
    </contour>
    <contour>
      <point x="354" y="575" type="curve" smooth="yes"/>
      <point x="402" y="575"/>
      <point x="440" y="614"/>
      <point x="440" y="662" type="curve" smooth="yes"/>
      <point x="440" y="708"/>
      <point x="402" y="748"/>
      <point x="354" y="748" type="curve" smooth="yes"/>
      <point x="305" y="748"/>
      <point x="267" y="708"/>
      <point x="267" y="662" type="curve" smooth="yes"/>
      <point x="267" y="614"/>
      <point x="305" y="575"/>
    </contour>
    <contour>
      <point x="241" y="517" type="move" name="_top"/>
    </contour>
    <contour>
      <point x="241" y="704" type="move" name="top"/>
    </contour>
  </outline>
</glyph>
<glyph name="copyright" format="1">
  <advance width="899"/>
  <unicode hex="00A9"/>
  <outline>
    <contour>
      <point x="450" y="-116" type="curve" smooth="yes"/>
      <point x="668" y="-116"/>
      <point x="846" y="61"/>
      <point x="846" y="280" type="curve" smooth="yes"/>
      <point x="846" y="498"/>
      <point x="668" y="675"/>
      <point x="450" y="675" type="curve" smooth="yes"/>
      <point x="231" y="675"/>
      <point x="53" y="498"/>
      <point x="53" y="280" type="curve" smooth="yes"/>
      <point x="53" y="61"/>
      <point x="231" y="-116"/>
    </contour>
    <contour>
      <point x="450" y="-73" type="curve" smooth="yes"/>
      <point x="255" y="-73"/>
      <point x="97" y="85"/>
      <point x="97" y="280" type="curve" smooth="yes"/>
      <point x="97" y="474"/>
      <point x="255" y="632"/>
      <point x="450" y="632" type="curve" smooth="yes"/>
      <point x="644" y="632"/>
      <point x="802" y="474"/>
      <point x="802" y="280" type="curve" smooth="yes"/>
      <point x="802" y="85"/>
      <point x="644" y="-73"/>
    </contour>
    <contour>
      <point x="459" y="9" type="curve" smooth="yes"/>
      <point x="555" y="9"/>
      <point x="628" y="48"/>
      <point x="680" y="108" type="curve"/>
      <point x="553" y="210" type="line"/>
      <point x="532" y="186"/>
      <point x="494" y="169"/>
      <point x="461" y="169" type="curve" smooth="yes"/>
      <point x="402" y="169"/>
      <point x="353" y="220"/>
      <point x="353" y="281" type="curve" smooth="yes"/>
      <point x="353" y="340"/>
      <point x="402" y="390"/>
      <point x="460" y="390" type="curve" smooth="yes"/>
      <point x="493" y="390"/>
      <point x="530" y="373"/>
      <point x="550" y="350" type="curve"/>
      <point x="677" y="454" type="line"/>
      <point x="627" y="512"/>
      <point x="554" y="550"/>
      <point x="462" y="550" type="curve" smooth="yes"/>
      <point x="303" y="550"/>
      <point x="169" y="427"/>
      <point x="169" y="280" type="curve" smooth="yes"/>
      <point x="169" y="133"/>
      <point x="302" y="9"/>
    </contour>
  </outline>
</glyph>
<glyph name="acute" format="1">
  <advance width="319"/>
  <unicode hex="00B4"/>
  <outline>
    <contour>
      <point x="19" y="574" type="line"/>
      <point x="145" y="574" type="line"/>
      <point x="297" y="710" type="line"/>
      <point x="131" y="738" type="line"/>
    </contour>
    <contour>
      <point x="82" y="517" type="move" name="_top"/>
    </contour>
    <contour>
      <point x="82" y="704" type="move" name="top"/>
    </contour>
  </outline>
</glyph>
<glyph name="paragraph" format="1">
  <advance width="779"/>
  <unicode hex="00B6"/>
  <outline>
    <contour>
      <point x="294" y="-50" type="line"/>
      <point x="431" y="-50" type="line"/>
      <point x="431" y="556" type="line"/>
      <point x="554" y="556" type="line"/>
      <point x="554" y="-50" type="line"/>
      <point x="691" y="-50" type="line"/>
      <point x="691" y="684" type="line"/>
      <point x="281" y="684" type="line"/>
      <point x="144" y="684"/>
      <point x="49" y="601"/>
      <point x="49" y="477" type="curve" smooth="yes"/>
      <point x="49" y="354"/>
      <point x="142" y="272"/>
      <point x="294" y="272" type="curve"/>
    </contour>
  </outline>
</glyph>
<glyph name="periodcentered" format="1">
  <advance width="330"/>
  <unicode hex="00B7"/>
  <outline>
    <contour>
      <point x="165" y="177" type="curve" smooth="yes"/>
      <point x="221" y="177"/>
      <point x="267" y="222"/>
      <point x="267" y="279" type="curve" smooth="yes"/>
      <point x="267" y="335"/>
      <point x="221" y="381"/>
      <point x="165" y="381" type="curve" smooth="yes"/>
      <point x="108" y="381"/>
      <point x="63" y="335"/>
      <point x="63" y="279" type="curve" smooth="yes"/>
      <point x="63" y="222"/>
      <point x="108" y="177"/>
    </contour>
  </outline>
</glyph>
<glyph name="Thorn" format="1">
  <advance width="682"/>
  <unicode hex="00DE"/>
  <outline>
    <contour>
      <point x="63" y="0" type="line"/>
      <point x="257" y="0" type="line"/>
      <point x="257" y="105" type="line"/>
      <point x="392" y="105" type="line" smooth="yes"/>
      <point x="546" y="105"/>
      <point x="655" y="204"/>
      <point x="655" y="345" type="curve" smooth="yes"/>
      <point x="655" y="486"/>
      <point x="546" y="585"/>
      <point x="392" y="585" type="curve" smooth="yes"/>
      <point x="252" y="585" type="line"/>
      <point x="252" y="687" type="line"/>
      <point x="63" y="687" type="line"/>
    </contour>
    <contour>
      <point x="257" y="281" type="line"/>
      <point x="257" y="409" type="line"/>
      <point x="376" y="409" type="line" smooth="yes"/>
      <point x="422" y="409"/>
      <point x="455" y="382"/>
      <point x="455" y="345" type="curve" smooth="yes"/>
      <point x="455" y="308"/>
      <point x="422" y="281"/>
      <point x="376" y="281" type="curve" smooth="yes"/>
    </contour>
  </outline>
</glyph>
<glyph name="divide" format="1">
  <advance width="605"/>
  <unicode hex="00F7"/>
  <outline>
    <contour>
      <point x="53" y="260" type="line"/>
      <point x="552" y="260" type="line"/>
      <point x="552" y="409" type="line"/>
      <point x="53" y="409" type="line"/>
    </contour>
    <contour>
      <point x="305" y="30" type="curve" smooth="yes"/>
      <point x="358" y="30"/>
      <point x="401" y="75"/>
      <point x="401" y="130" type="curve" smooth="yes"/>
      <point x="401" y="181"/>
      <point x="358" y="226"/>
      <point x="305" y="226" type="curve" smooth="yes"/>
      <point x="249" y="226"/>
      <point x="205" y="181"/>
      <point x="205" y="130" type="curve" smooth="yes"/>
      <point x="205" y="75"/>
      <point x="249" y="30"/>
    </contour>
    <contour>
      <point x="305" y="442" type="curve" smooth="yes"/>
      <point x="358" y="442"/>
      <point x="401" y="487"/>
      <point x="401" y="542" type="curve" smooth="yes"/>
      <point x="401" y="593"/>
      <point x="358" y="638"/>
      <point x="305" y="638" type="curve" smooth="yes"/>
      <point x="249" y="638"/>
      <point x="205" y="593"/>
      <point x="205" y="542" type="curve" smooth="yes"/>
      <point x="205" y="487"/>
      <point x="249" y="442"/>
    </contour>
  </outline>
</glyph>
<glyph name="oslash" format="1">
  <advance width="645"/>
  <unicode hex="00F8"/>
  <outline>
    <contour>
      <point x="36" y="0" type="line"/>
      <point x="156" y="0" type="line"/>
      <point x="606" y="517" type="line"/>
      <point x="486" y="517" type="line"/>
    </contour>
    <component base="o" xOffset="2"/>
  </outline>
</glyph>
<glyph name="idotless" format="1">
  <advance width="311"/>
  <unicode hex="0131"/>
  <outline>
    <contour>
      <point x="59" y="0" type="line"/>
      <point x="252" y="0" type="line"/>
      <point x="252" y="517" type="line"/>
      <point x="59" y="517" type="line"/>
    </contour>
    <contour>
      <point x="252" y="0" type="move" name="bottom"/>
    </contour>
    <contour>
      <point x="59" y="259" type="move" name="loop_left"/>
    </contour>
    <contour>
      <point x="252" y="219" type="move" name="r_shoulder"/>
    </contour>
    <contour>
      <point x="252" y="290" type="move" name="shoulder"/>
    </contour>
    <contour>
      <point x="156" y="517" type="move" name="top"/>
    </contour>
  </outline>
</glyph>
<glyph name="Lslash" format="1">
  <advance width="676"/>
  <unicode hex="0141"/>
  <outline>
    <contour>
      <point x="38" y="178" type="line"/>
      <point x="404" y="358" type="line"/>
      <point x="404" y="525" type="line"/>
      <point x="38" y="345" type="line"/>
    </contour>
    <component base="L" xOffset="53"/>
  </outline>
</glyph>
<glyph name="lslash" format="1">
  <advance width="403"/>
  <unicode hex="0142"/>
  <outline>
    <contour>
      <point x="29" y="178" type="line"/>
      <point x="377" y="350" type="line"/>
      <point x="377" y="517" type="line"/>
      <point x="29" y="345" type="line"/>
    </contour>
    <component base="l" xOffset="54"/>
  </outline>
</glyph>
<glyph name="ring" format="1">
  <advance width="316"/>
  <unicode hex="02DA"/>
  <outline>
    <contour>
      <point x="158" y="575" type="curve" smooth="yes"/>
      <point x="225" y="575"/>
      <point x="279" y="629"/>
      <point x="279" y="696" type="curve" smooth="yes"/>
      <point x="279" y="763"/>
      <point x="225" y="817"/>
      <point x="158" y="817" type="curve" smooth="yes"/>
      <point x="92" y="817"/>
      <point x="37" y="763"/>
      <point x="37" y="696" type="curve" smooth="yes"/>
      <point x="37" y="629"/>
      <point x="92" y="575"/>
    </contour>
    <contour>
      <point x="158" y="647" type="curve" smooth="yes"/>
      <point x="131" y="647"/>
      <point x="109" y="669"/>
      <point x="109" y="696" type="curve" smooth="yes"/>
      <point x="109" y="723"/>
      <point x="131" y="745"/>
      <point x="158" y="745" type="curve" smooth="yes"/>
      <point x="185" y="745"/>
      <point x="207" y="723"/>
      <point x="207" y="696" type="curve" smooth="yes"/>
      <point x="207" y="669"/>
      <point x="185" y="647"/>
    </contour>
    <contour>
      <point x="158" y="517" type="move" name="_top"/>
    </contour>
    <contour>
      <point x="158" y="704" type="move" name="top"/>
    </contour>
  </outline>
</glyph>
<glyph name="endash" format="1">
  <advance width="609"/>
  <unicode hex="2013"/>
  <outline>
    <contour>
      <point x="59" y="200" type="line"/>
      <point x="550" y="200" type="line"/>
      <point x="550" y="356" type="line"/>
      <point x="59" y="356" type="line"/>
    </contour>
  </outline>
</glyph>
<glyph name="emdash" format="1">
  <advance width="914"/>
  <unicode hex="2014"/>
  <outline>
    <contour>
      <point x="59" y="200" type="line"/>
      <point x="855" y="200" type="line"/>
      <point x="855" y="356" type="line"/>
      <point x="59" y="356" type="line"/>
    </contour>
  </outline>
</glyph>
<glyph name="bullet" format="1">
  <advance width="415"/>
  <unicode hex="2022"/>
  <outline>
    <contour>
      <point x="208" y="148" type="curve" smooth="yes"/>
      <point x="290" y="148"/>
      <point x="357" y="215"/>
      <point x="357" y="298" type="curve" smooth="yes"/>
      <point x="357" y="380"/>
      <point x="290" y="447"/>
      <point x="208" y="447" type="curve" smooth="yes"/>
      <point x="125" y="447"/>
      <point x="58" y="380"/>
      <point x="58" y="298" type="curve" smooth="yes"/>
      <point x="58" y="215"/>
      <point x="125" y="148"/>
    </contour>
  </outline>
</glyph>
<glyph name="perthousand" format="1">
  <advance width="1300"/>
  <unicode hex="2030"/>
  <outline>
    <contour>
      <point x="143" y="0" type="line"/>
      <point x="285" y="0" type="line"/>
      <point x="768" y="687" type="line"/>
      <point x="626" y="687" type="line"/>
    </contour>
    <contour>
      <point x="682" y="-11" type="curve" smooth="yes"/>
      <point x="788" y="-11"/>
      <point x="861" y="67"/>
      <point x="861" y="167" type="curve" smooth="yes"/>
      <point x="861" y="266"/>
      <point x="791" y="346"/>
      <point x="682" y="346" type="curve" smooth="yes"/>
      <point x="575" y="346"/>
      <point x="502" y="268"/>
      <point x="502" y="167" type="curve" smooth="yes"/>
      <point x="502" y="69"/>
      <point x="573" y="-11"/>
    </contour>
    <contour>
      <point x="682" y="97" type="curve" smooth="yes"/>
      <point x="649" y="97"/>
      <point x="624" y="123"/>
      <point x="624" y="167" type="curve" smooth="yes"/>
      <point x="624" y="214"/>
      <point x="648" y="238"/>
      <point x="682" y="238" type="curve" smooth="yes"/>
      <point x="714" y="238"/>
      <point x="740" y="212"/>
      <point x="740" y="167" type="curve" smooth="yes"/>
      <point x="740" y="122"/>
      <point x="715" y="97"/>
    </contour>
    <contour>
      <point x="228" y="338" type="curve" smooth="yes"/>
      <point x="335" y="338"/>
      <point x="408" y="415"/>
      <point x="408" y="516" type="curve" smooth="yes"/>
      <point x="408" y="614"/>
      <point x="338" y="694"/>
      <point x="228" y="694" type="curve" smooth="yes"/>
      <point x="119" y="694"/>
      <point x="49" y="614"/>
      <point x="49" y="516" type="curve" smooth="yes"/>
      <point x="49" y="415"/>
      <point x="121" y="338"/>
    </contour>
    <contour>
      <point x="228" y="445" type="curve" smooth="yes"/>
      <point x="196" y="445"/>
      <point x="171" y="471"/>
      <point x="171" y="516" type="curve" smooth="yes"/>
      <point x="171" y="561"/>
      <point x="195" y="586"/>
      <point x="228" y="586" type="curve" smooth="yes"/>
      <point x="261" y="586"/>
      <point x="286" y="560"/>
      <point x="286" y="516" type="curve" smooth="yes"/>
      <point x="286" y="470"/>
      <point x="261" y="445"/>
    </contour>
    <contour>
      <point x="1072" y="-11" type="curve" smooth="yes"/>
      <point x="1178" y="-11"/>
      <point x="1251" y="67"/>
      <point x="1251" y="167" type="curve" smooth="yes"/>
      <point x="1251" y="266"/>
      <point x="1181" y="346"/>
      <point x="1072" y="346" type="curve" smooth="yes"/>
      <point x="965" y="346"/>
      <point x="892" y="268"/>
      <point x="892" y="167" type="curve" smooth="yes"/>
      <point x="892" y="69"/>
      <point x="963" y="-11"/>
    </contour>
    <contour>
      <point x="1072" y="97" type="curve" smooth="yes"/>
      <point x="1039" y="97"/>
      <point x="1014" y="123"/>
      <point x="1014" y="167" type="curve" smooth="yes"/>
      <point x="1014" y="214"/>
      <point x="1038" y="238"/>
      <point x="1072" y="238" type="curve" smooth="yes"/>
      <point x="1104" y="238"/>
      <point x="1130" y="212"/>
      <point x="1130" y="167" type="curve" smooth="yes"/>
      <point x="1130" y="122"/>
      <point x="1105" y="97"/>
    </contour>
  </outline>
</glyph>
<glyph name="guilsinglleft" format="1">
  <advance width="369"/>
  <unicode hex="2039"/>
  <outline>
    <contour>
      <point x="194" y="48" type="line"/>
      <point x="336" y="79" type="line"/>
      <point x="197" y="256" type="line"/>
      <point x="336" y="432" type="line"/>
      <point x="194" y="462" type="line"/>
      <point x="27" y="256" type="line"/>
    </contour>
  </outline>
</glyph>
<glyph name="guilsinglright" format="1">
  <advance width="369"/>
  <unicode hex="203A"/>
  <outline>
    <contour>
      <point x="175" y="48" type="line"/>
      <point x="342" y="256" type="line"/>
      <point x="175" y="462" type="line"/>
      <point x="33" y="432" type="line"/>
      <point x="172" y="256" type="line"/>
      <point x="33" y="79" type="line"/>
    </contour>
  </outline>
</glyph>
<glyph name="trademark" format="1">
  <advance width="780"/>
  <unicode hex="2122"/>
  <outline>
    <contour>
      <point x="139" y="280" type="line"/>
      <point x="234" y="280" type="line"/>
      <point x="234" y="495" type="line"/>
      <point x="317" y="495" type="line"/>
      <point x="317" y="580" type="line"/>
      <point x="55" y="580" type="line"/>
      <point x="55" y="495" type="line"/>
      <point x="139" y="495" type="line"/>
    </contour>
    <contour>
      <point x="351" y="280" type="line"/>
      <point x="447" y="280" type="line"/>
      <point x="447" y="421" type="line"/>
      <point x="522" y="297" type="line"/>
      <point x="597" y="421" type="line"/>
      <point x="597" y="280" type="line"/>
      <point x="692" y="280" type="line"/>
      <point x="692" y="580" type="line"/>
      <point x="597" y="580" type="line"/>
      <point x="522" y="457" type="line"/>
      <point x="447" y="580" type="line"/>
      <point x="351" y="580" type="line"/>
    </contour>
  </outline>
</glyph>
<glyph name="minus" format="1">
  <advance width="675"/>
  <unicode hex="2212"/>
  <outline>
    <contour>
      <point x="88" y="259" type="line"/>
      <point x="587" y="259" type="line"/>
      <point x="587" y="408" type="line"/>
      <point x="88" y="408" type="line"/>
    </contour>
  </outline>
</glyph>
<glyph name="ae_upper" format="1">
  <advance width="689"/>
  <outline>
    <contour>
      <point x="11" y="0" type="line"/>
      <point x="235" y="0" type="line"/>
      <point x="632" y="687" type="line"/>
      <point x="408" y="687" type="line"/>
    </contour>
    <contour>
      <point x="244" y="92" type="line"/>
      <point x="663" y="92" type="line"/>
      <point x="663" y="235" type="line"/>
      <point x="244" y="235" type="line"/>
    </contour>
    <contour>
      <point x="532" y="687" type="move" name="_ae_upper"/>
    </contour>
  </outline>
</glyph>
<glyph name="descender" format="1">
  <advance width="311"/>
  <outline>
    <contour>
      <point x="59" y="-172" type="line"/>
      <point x="252" y="-172" type="line"/>
      <point x="252" y="517" type="line"/>
      <point x="59" y="517" type="line"/>
    </contour>
    <contour>
      <point x="59" y="259" type="move" name="loop_left"/>
    </contour>
    <contour>
      <point x="252" y="259" type="move" name="loop_right"/>
    </contour>
  </outline>
</glyph>
<glyph name="k_arms" format="1">
  <advance width="411"/>
  <outline>
    <contour>
      <point x="181" y="0" type="line"/>
      <point x="397" y="0" type="line"/>
      <point x="212" y="294" type="line"/>
      <point x="393" y="517" type="line"/>
      <point x="177" y="517" type="line"/>
      <point x="35" y="323" type="line"/>
      <point x="34" y="107" type="line"/>
      <point x="86" y="171" type="line"/>
    </contour>
    <contour>
      <point x="34" y="107" type="move" name="k_arms"/>
    </contour>
  </outline>
</glyph>
<glyph name="lowercase_loop_reverse" format="1">
  <advance width="530"/>
  <outline>
    <contour>
      <point x="267" y="-12" type="curve" smooth="yes"/>
      <point x="403" y="-12"/>
      <point x="500" y="100"/>
      <point x="500" y="259" type="curve" smooth="yes"/>
      <point x="500" y="417"/>
      <point x="403" y="529"/>
      <point x="267" y="529" type="curve" smooth="yes"/>
      <point x="128" y="529"/>
      <point x="30" y="417"/>
      <point x="30" y="259" type="curve" smooth="yes"/>
      <point x="30" y="100"/>
      <point x="128" y="-12"/>
    </contour>
    <contour>
      <point x="328" y="148" type="curve" smooth="yes"/>
      <point x="261" y="148"/>
      <point x="214" y="194"/>
      <point x="214" y="259" type="curve" smooth="yes"/>
      <point x="214" y="323"/>
      <point x="261" y="369"/>
      <point x="328" y="369" type="curve" smooth="yes"/>
      <point x="389" y="369"/>
      <point x="432" y="323"/>
      <point x="432" y="259" type="curve" smooth="yes"/>
      <point x="432" y="194"/>
      <point x="389" y="148"/>
    </contour>
    <contour>
      <point x="432" y="259" type="move" name="_loop_left"/>
    </contour>
  </outline>
</glyph>
<glyph name="lowercase_m_shoulder" format="1">
  <advance width="418"/>
  <outline>
    <contour>
      <point x="186" y="-1" type="line"/>
      <point x="370" y="-1" type="line"/>
      <point x="370" y="329" type="line" smooth="yes"/>
      <point x="370" y="446"/>
      <point x="282" y="529"/>
      <point x="174" y="529" type="curve" smooth="yes"/>
      <point x="85" y="529"/>
      <point x="22" y="467"/>
      <point x="22" y="379" type="curve"/>
      <point x="40" y="300" type="line"/>
      <point x="40" y="340"/>
      <point x="70" y="369"/>
      <point x="113" y="369" type="curve" smooth="yes"/>
      <point x="156" y="369"/>
      <point x="186" y="338"/>
      <point x="186" y="294" type="curve" smooth="yes"/>
    </contour>
    <contour>
      <point x="40" y="290" type="move" name="_shoulder"/>
    </contour>
    <contour>
      <point x="370" y="290" type="move" name="shoulder"/>
    </contour>
  </outline>
</glyph>
<glyph name="lowercase_r_shoulder" format="1">
  <advance width="267"/>
  <outline>
    <contour>
      <point x="67" y="219" type="line"/>
      <point x="67" y="313"/>
      <point x="127" y="369"/>
      <point x="229" y="369" type="curve"/>
      <point x="229" y="529" type="line"/>
      <point x="115" y="529"/>
      <point x="34" y="425"/>
      <point x="34" y="279" type="curve"/>
    </contour>
    <contour>
      <point x="67" y="219" type="move" name="_r_shoulder"/>
    </contour>
  </outline>
</glyph>
